# This file uses centimeters as units for non-parametric coordinates.

g default
v 0.002203 0.320338 0.140602
v 0.138858 0.320338 0.003947
v 0.002203 0.320338 -0.132707
v -0.134451 0.320338 0.003947
v 0.138858 0.000000 0.003947
v 0.002203 0.000000 0.140602
v -0.134452 0.000000 0.003947
v 0.002203 0.000000 -0.132707
v -0.609432 0.000000 0.478928
v -0.472778 0.000000 0.615583
v -0.472778 0.320338 0.615583
v -0.609432 0.320338 0.478928
v 0.613838 0.320338 -0.471033
v 0.477184 0.320338 -0.607688
v 0.613838 0.000000 -0.471033
v 0.477184 0.000000 -0.607688
v 0.477184 0.000000 0.615583
v 0.613838 0.000000 0.478928
v 0.613838 0.320338 0.478928
v 0.477184 0.320338 0.615582
v -0.472778 0.320338 -0.607688
v -0.609432 0.320338 -0.471034
v -0.472778 0.000000 -0.607688
v -0.609432 0.000000 -0.471033
vt 0.300647 0.606403
vt 0.494020 0.779920
vt 0.543927 0.749868
vt 0.350554 0.576350
vt 0.127182 0.710859
vt 0.320554 0.884377
vt 1.166138 1.383029
vt 1.216045 1.352977
vt 0.717392 0.645411
vt 0.524020 0.471894
vt -0.321564 -0.026759
vt -0.371471 0.003293
vt 0.329802 0.385544
vt 0.127388 0.107783
vt 0.181724 0.128793
vt 0.384138 0.406555
vt 0.140942 0.312515
vt -0.061473 0.034755
vt -0.576159 -0.857652
vt -0.521822 -0.836642
vt 0.370585 0.201822
vt 0.572999 0.479583
vt 1.087685 1.371990
vt 1.033349 1.350979
vt 0.346859 0.854532
vt 0.395847 0.854532
vt 0.395847 0.969365
vt 0.346859 0.969365
vt 0.628566 0.908900
vt 0.628566 0.738629
vt 0.743402 0.738629
vt 0.743402 0.908900
vt 0.728770 0.673623
vt 0.728769 0.503352
vt 0.843605 0.503351
vt 0.843605 0.673623
vt 0.810066 0.908397
vt 0.810066 0.738125
vt 0.924901 0.738125
vt 0.924901 0.908397
vt 0.662103 0.422597
vt 0.662103 0.471585
vt 0.547268 0.471585
vt 0.547268 0.422597
vt 0.547268 0.252325
vt 0.662103 0.252325
vt 0.547268 0.082054
vt 0.662103 0.082054
vt 0.662103 0.033066
vt 0.547268 0.033066
vt 0.029229 0.774288
vt 0.078217 0.774288
vt 0.078217 0.889122
vt 0.029229 0.889122
vt 0.843604 0.269313
vt 0.843605 0.439584
vt 0.728770 0.439584
vt 0.728769 0.269313
vt 0.728769 0.204746
vt 0.728769 0.034474
vt 0.843604 0.034475
vt 0.843604 0.204746
vt 0.029229 0.713122
vt 0.029230 0.542851
vt 0.144064 0.542851
vt 0.144064 0.713123
vn 0.000000 1.000000 0.000000
vn 0.000000 1.000000 0.000000
vn 0.000000 1.000000 0.000000
vn 0.000000 1.000000 0.000000
vn -0.000000 -1.000000 -0.000000
vn -0.000000 -1.000000 -0.000000
vn 0.000000 -1.000000 0.000000
vn 0.000000 -1.000000 0.000000
vn -0.707107 0.000000 0.707107
vn -0.707107 0.000000 0.707107
vn -0.707107 0.000000 0.707107
vn -0.707107 0.000000 0.707107
vn -0.707107 0.000000 -0.707107
vn -0.707107 0.000000 -0.707107
vn -0.707107 0.000000 -0.707107
vn -0.707107 0.000000 -0.707107
vn 0.000000 -1.000000 -0.000000
vn 0.000000 -1.000000 -0.000000
vn 0.707107 -0.000001 0.707107
vn 0.707107 -0.000001 0.707107
vn 0.707107 -0.000001 0.707107
vn 0.707107 -0.000001 0.707107
vn 0.000000 1.000000 0.000000
vn 0.000000 1.000000 0.000000
vn 0.000000 1.000000 0.000000
vn 0.000000 1.000000 0.000000
vn 0.707107 -0.000000 0.707107
vn 0.707107 -0.000000 0.707107
vn 0.707107 -0.000000 0.707107
vn 0.707107 -0.000000 0.707107
vn 0.707107 -0.000000 -0.707107
vn 0.707107 -0.000000 -0.707107
vn 0.707107 -0.000000 -0.707107
vn 0.707107 -0.000000 -0.707107
vn -0.707107 0.000000 -0.707107
vn -0.707107 0.000000 -0.707107
vn -0.707107 0.000000 -0.707107
vn -0.707107 0.000000 -0.707107
vn -0.000000 -1.000000 0.000000
vn -0.000000 -1.000000 0.000000
vn 0.707107 0.000000 0.707107
vn 0.707107 0.000000 0.707107
vn 0.707107 0.000000 0.707107
vn 0.707107 0.000000 0.707107
vn -0.707107 0.000001 0.707107
vn -0.707107 0.000001 0.707107
vn -0.707107 0.000001 0.707107
vn -0.707107 0.000001 0.707107
vn -0.000000 -1.000000 -0.000000
vn -0.000000 -1.000000 -0.000000
vn 0.707107 -0.000000 -0.707107
vn 0.707107 -0.000000 -0.707107
vn 0.707107 -0.000000 -0.707107
vn 0.707107 -0.000000 -0.707107
vn 0.000000 1.000000 0.000000
vn 0.000000 1.000000 0.000000
vn 0.000000 1.000000 0.000000
vn 0.000000 1.000000 0.000000
vn 0.707107 -0.000001 -0.707107
vn 0.707107 -0.000001 -0.707107
vn 0.707107 -0.000001 -0.707107
vn 0.707107 -0.000001 -0.707107
vn -0.707107 -0.000000 -0.707107
vn -0.707107 -0.000000 -0.707107
vn -0.707107 -0.000000 -0.707107
vn -0.707107 -0.000000 -0.707107
vn -0.707107 0.000001 0.707107
vn -0.707107 0.000001 0.707107
vn -0.707107 0.000001 0.707107
vn -0.707107 0.000001 0.707107
vn 0.000000 -1.000000 0.000000
vn 0.000000 -1.000000 0.000000
s 1
g pCube14
f 1/1/1 2/2/2 3/3/3 4/4/4
s 2
f 5/13/5 6/14/6 7/15/7 8/16/8
s off
f 9/25/9 10/26/10 11/27/11 12/28/12
f 7/29/13 9/30/14 12/31/15 4/32/16
s 2
f 6/14/6 10/19/17 9/20/18 7/15/7
s off
f 10/33/19 6/34/20 1/35/21 11/36/22
s 1
f 12/11/23 11/12/24 1/1/1 4/4/4
f 2/2/2 13/7/25 14/8/26 3/3/3
s off
f 5/37/27 15/38/28 13/39/29 2/40/30
f 14/41/31 13/42/32 15/43/33 16/44/34
f 16/44/35 8/45/36 3/46/37 14/41/38
s 2
f 16/23/39 15/24/40 5/13/5 8/16/8
s off
f 17/51/41 18/52/42 19/53/43 20/54/44
f 6/55/45 17/56/46 20/57/47 1/58/48
s 2
f 5/13/5 18/17/49 17/18/50 6/14/6
s off
f 18/59/51 5/60/52 2/61/53 19/62/54
s 1
f 20/5/55 19/6/56 2/2/2 1/1/1
f 3/3/3 21/9/57 22/10/58 4/4/4
s off
f 8/45/59 23/47/60 21/48/61 3/46/62
f 22/49/63 21/48/64 23/47/65 24/50/66
f 24/63/67 7/64/68 4/65/69 22/66/70
s 2
f 24/21/71 23/22/72 8/16/8 7/15/7
